<?xml version="1.0" encoding="UTF-8" standalone="no"?>
<!-- Created with Inkscape (http://www.inkscape.org/) -->
<svg
   xmlns:dc="http://purl.org/dc/elements/1.1/"
   xmlns:cc="http://creativecommons.org/ns#"
   xmlns:rdf="http://www.w3.org/1999/02/22-rdf-syntax-ns#"
   xmlns:svg="http://www.w3.org/2000/svg"
   xmlns="http://www.w3.org/2000/svg"
   xmlns:sodipodi="http://sodipodi.sourceforge.net/DTD/sodipodi-0.dtd"
   xmlns:inkscape="http://www.inkscape.org/namespaces/inkscape"
   width="1052.3622"
   height="744.09448"
   id="svg1901"
   sodipodi:version="0.32"
   inkscape:version="0.46"
   sodipodi:docname="call-missed.svg"
   sodipodi:docbase="/home/tsoots/ohj/translations/po"
   inkscape:output_extension="org.inkscape.output.svg.inkscape"
   version="1.0">
  <defs
     id="defs1903">
    <inkscape:perspective
       sodipodi:type="inkscape:persp3d"
       inkscape:vp_x="0 : 526.18109 : 1"
       inkscape:vp_y="0 : 1000 : 0"
       inkscape:vp_z="744.09448 : 526.18109 : 1"
       inkscape:persp3d-origin="372.04724 : 350.78739 : 1"
       id="perspective2441" />
  </defs>
  <sodipodi:namedview
     id="base"
     pagecolor="#ffffff"
     bordercolor="#666666"
     borderopacity="1.0"
     inkscape:pageopacity="0.0"
     inkscape:pageshadow="2"
     inkscape:zoom="0.35"
     inkscape:cx="350"
     inkscape:cy="520"
     inkscape:document-units="px"
     inkscape:current-layer="icon-m-call-missed"
     gridtolerance="10000"
     inkscape:window-width="877"
     inkscape:window-height="739"
     inkscape:window-x="1434"
     inkscape:window-y="101"
     showgrid="false" />
  <metadata
     id="metadata1906">
    <rdf:RDF>
      <cc:Work
         rdf:about="">
        <dc:format>image/svg+xml</dc:format>
        <dc:type
           rdf:resource="http://purl.org/dc/dcmitype/StillImage" />
      </cc:Work>
    </rdf:RDF>
  </metadata>
  <g
     inkscape:label="icon-m-call-missed"
     inkscape:groupmode="layer"
     id="icon-m-call-missed"
     style="opacity:1">
    <path
       style="fill:#f2f2f2"
       d="M 675.80205,311.66844 C 638.26089,345.73012 589.7242,357.87706 566.64322,339.06555 L 497.8395,276.0847 C 481.65517,261.39607 453.95477,262.51912 436.3228,278.53773 L 202.45519,490.93188 C 184.77444,506.95049 184.02619,531.68767 200.2268,546.40586 C 200.2268,546.40586 266.93227,607.45091 267.64796,608.175 C 290.22466,628.64154 277.45615,673.402 239.13423,708.21731 C 200.84489,742.97352 151.4949,754.5737 128.98326,734.10715 C 127.50305,732.74762 78.901274,688.85905 76.933144,687.02668 C 9.4469443,625.75995 48.126684,471.42582 176.33255,351.84792 C 178.43082,349.94166 215.58159,316.20507 217.71239,314.26925 C 219.29016,312.79151 280.90444,256.85942 282.51477,255.45559 C 414.46176,137.99083 585.34871,102.25929 653.11145,163.792 C 656.10432,166.54058 704.39706,210.84292 704.81996,211.18279 C 727.31535,231.66415 714.14019,276.83834 675.80205,311.66844 z"
       id="path2427"
       sodipodi:nodetypes="cccccccccccccccc" />
    <path
       sodipodi:type="arc"
       style="opacity:1;fill:#f3a30d;fill-opacity:1;stroke:none"
       id="path2423"
       sodipodi:cx="521.42859"
       sodipodi:cy="328.07648"
       sodipodi:rx="175.71428"
       sodipodi:ry="158.57143"
       d="M 697.14287,328.07648 A 175.71428,158.57143 0 1 1 345.71431,328.07648 A 175.71428,158.57143 0 1 1 697.14287,328.07648 z"
       transform="matrix(1.3526697,0,0,1.3526697,108.96504,-228.25605)" />
  </g>
</svg>
