<?xml version="1.0" encoding="UTF-8" standalone="no"?>
<!-- Created with Inkscape (http://www.inkscape.org/) -->
<svg
   xmlns:dc="http://purl.org/dc/elements/1.1/"
   xmlns:cc="http://creativecommons.org/ns#"
   xmlns:rdf="http://www.w3.org/1999/02/22-rdf-syntax-ns#"
   xmlns:svg="http://www.w3.org/2000/svg"
   xmlns="http://www.w3.org/2000/svg"
   xmlns:sodipodi="http://sodipodi.sourceforge.net/DTD/sodipodi-0.dtd"
   xmlns:inkscape="http://www.inkscape.org/namespaces/inkscape"
   width="210mm"
   height="297mm"
   id="svg1901"
   sodipodi:version="0.32"
   inkscape:version="0.46"
   sodipodi:docname="call-missed.svg"
   sodipodi:docbase="/home/tsoots/ohj/translations/po"
   inkscape:output_extension="org.inkscape.output.svg.inkscape">
  <defs
     id="defs1903">
    <inkscape:perspective
       sodipodi:type="inkscape:persp3d"
       inkscape:vp_x="0 : 526.18109 : 1"
       inkscape:vp_y="0 : 1000 : 0"
       inkscape:vp_z="744.09448 : 526.18109 : 1"
       inkscape:persp3d-origin="372.04724 : 350.78739 : 1"
       id="perspective2441" />
  </defs>
  <sodipodi:namedview
     id="base"
     pagecolor="#ffffff"
     bordercolor="#666666"
     borderopacity="1.0"
     inkscape:pageopacity="0.0"
     inkscape:pageshadow="2"
     inkscape:zoom="0.35"
     inkscape:cx="350"
     inkscape:cy="520"
     inkscape:document-units="px"
     inkscape:current-layer="layer1"
     gridtolerance="10000"
     inkscape:window-width="877"
     inkscape:window-height="739"
     inkscape:window-x="1434"
     inkscape:window-y="101"
     showgrid="false" />
  <metadata
     id="metadata1906">
    <rdf:RDF>
      <cc:Work
         rdf:about="">
        <dc:format>image/svg+xml</dc:format>
        <dc:type
           rdf:resource="http://purl.org/dc/dcmitype/StillImage" />
      </cc:Work>
    </rdf:RDF>
  </metadata>
  <g
     inkscape:label="icon-m-call-missed"
     inkscape:groupmode="layer"
     id="icon-m-call-missed"
     style="opacity:1">
    <g
       id="g3236">
      <path
         sodipodi:nodetypes="cccccccccccccccc"
         id="path2427"
         d="M 546.14889,369.85638 C 515.6348,397.54228 476.18337,407.41552 457.42276,392.12521 L 401.49794,340.93332 C 388.34305,328.99415 365.8277,329.90699 351.49614,342.92718 L 161.40462,515.56471 C 147.03341,528.5849 146.42522,548.6917 159.59335,560.65489 C 159.59335,560.65489 213.81267,610.27333 214.3944,610.86188 C 232.74512,627.49743 222.36666,663.87948 191.21796,692.17795 C 160.09574,720.42838 119.98324,729.8572 101.6854,713.22165 C 100.48226,712.1166 60.977919,676.44323 59.378189,674.95385 C 4.5242786,625.15523 35.963819,499.70986 140.1717,402.51493 C 141.87721,400.96549 172.07398,373.54383 173.80593,371.97036 C 175.08837,370.76923 225.16949,325.30669 226.47839,324.16563 C 333.72712,228.6883 472.6269,199.64511 527.70559,249.65993 C 530.13824,251.89402 569.39139,287.9037 569.73513,288.17996 C 588.01976,304.82755 577.31077,341.54589 546.14889,369.85638 z"
         style="fill:#f2f2f2" />
      <path
         transform="translate(91.428571,-77.142857)"
         d="M 697.14287,328.07648 A 175.71428,158.57143 0 1 1 345.71431,328.07648 A 175.71428,158.57143 0 1 1 697.14287,328.07648 z"
         sodipodi:ry="158.57143"
         sodipodi:rx="175.71428"
         sodipodi:cy="328.07648"
         sodipodi:cx="521.42859"
         id="path2444"
         style="fill:#f3a30d;fill-opacity:1;stroke:none"
         sodipodi:type="arc" />
    </g>
  </g>
</svg>
