<?xml version="1.0" encoding="UTF-8" standalone="no"?>
<!-- Created with Inkscape (http://www.inkscape.org/) -->
<svg
   xmlns:dc="http://purl.org/dc/elements/1.1/"
   xmlns:cc="http://creativecommons.org/ns#"
   xmlns:rdf="http://www.w3.org/1999/02/22-rdf-syntax-ns#"
   xmlns:svg="http://www.w3.org/2000/svg"
   xmlns="http://www.w3.org/2000/svg"
   xmlns:xlink="http://www.w3.org/1999/xlink"
   xmlns:sodipodi="http://sodipodi.sourceforge.net/DTD/sodipodi-0.dtd"
   xmlns:inkscape="http://www.inkscape.org/namespaces/inkscape"
   width="210mm"
   height="297mm"
   id="svg1901"
   sodipodi:version="0.32"
   inkscape:version="0.46"
   sodipodi:docname="messages-missed.svg"
   sodipodi:docbase="/home/tsoots/ohj/translations/po"
   inkscape:output_extension="org.inkscape.output.svg.inkscape">
  <defs
     id="defs1903"><inkscape:perspective
   sodipodi:type="inkscape:persp3d"
   inkscape:vp_x="0 : 526.18109 : 1"
   inkscape:vp_y="0 : 1000 : 0"
   inkscape:vp_z="744.09448 : 526.18109 : 1"
   inkscape:persp3d-origin="372.04724 : 350.78739 : 1"
   id="perspective2441" />

	
		
	
</defs>
  <sodipodi:namedview
     id="base"
     pagecolor="#ffffff"
     bordercolor="#666666"
     borderopacity="1.0"
     inkscape:pageopacity="0.0"
     inkscape:pageshadow="2"
     inkscape:zoom="0.35"
     inkscape:cx="316.06679"
     inkscape:cy="621.05825"
     inkscape:document-units="px"
     inkscape:current-layer="layer1"
     gridtolerance="10000"
     inkscape:window-width="877"
     inkscape:window-height="739"
     inkscape:window-x="1434"
     inkscape:window-y="101"
     showgrid="false" />
  <metadata
     id="metadata1906">
    <rdf:RDF>
      <cc:Work
         rdf:about="">
        <dc:format>image/svg+xml</dc:format>
        <dc:type
           rdf:resource="http://purl.org/dc/dcmitype/StillImage" />
      </cc:Work>
    </rdf:RDF>
  </metadata>
  <g
     inkscape:label="icon-m-unread-messages"
     inkscape:groupmode="layer"
     id="icon-m-unread-messages"
     style="opacity:1">
    <use
       style="fill:#f2f2f2;overflow:visible"
       transform="matrix(11.491153,0,0,-11.491153,129.24618,259.50216)"
       y="-32"
       x="-31.999001"
       id="background_x5F_64_117_"
       height="64"
       width="63.999001"
       xlink:href="#background_x5F_64" />
    <g
       id="g4579">
      <g
         transform="matrix(11.491153,0,0,11.491153,-238.46497,-108.21474)"
         id="g4546"
         style="fill:#f2f2f2">
		<path
   style="fill:#f2f2f2"
   d="M 32.003,52.273 L 31.149,51.912 L 3.613,39.875 L 3.613,56.326 C 3.613,60.568 7.074,64 11.294,64 L 52.727,64 C 56.916,64 60.387,60.568 60.387,56.326 L 60.387,39.875 L 32.848,51.912 L 32.003,52.273 z"
   id="path4548" />

		<path
   sodipodi:nodetypes="cccccccccc"
   style="fill:#f2f2f2"
   d="M 52.727,23.83 L 43.616,23.83 L 20.808,23.83 L 11.293,23.83 C 7.073,23.83 3.612,27.295 3.612,31.498 L 3.612,33.291 L 32.003,45.727 L 60.386,33.291 L 60.386,31.498 C 60.387,27.295 56.916,23.83 52.727,23.83 z"
   id="path4550" />

		
	</g>
      <path
         transform="translate(-37.14286,-105.71428)"
         d="M 697.14287,328.07648 A 175.71428,158.57143 0 1 1 345.71431,328.07648 A 175.71428,158.57143 0 1 1 697.14287,328.07648 z"
         sodipodi:ry="158.57143"
         sodipodi:rx="175.71428"
         sodipodi:cy="328.07648"
         sodipodi:cx="521.42859"
         id="path2444"
         style="fill:#f3a30d;fill-opacity:1;stroke:none"
         sodipodi:type="arc" />
    </g>
  </g>
</svg>
